<svg xmlns="http://www.w3.org/2000/svg" xmlns:xlink="http://www.w3.org/1999/xlink" width="183" zoomAndPan="magnify" viewBox="0 0 137.25 30.000001" height="40" preserveAspectRatio="xMidYMid meet" version="1.0"><path fill="#ffffff" d="M 50.511719 7.453125 L 50.511719 7.929688 L 57.367188 7.929688 L 57.367188 6.976562 L 50.511719 6.976562 Z M 50.511719 7.453125 " fill-opacity="1" fill-rule="nonzero"/><path fill="#ffffff" d="M 58.414062 7.453125 L 58.414062 7.929688 L 63.28125 7.929688 C 65.957031 7.929688 68.152344 7.917969 68.152344 7.902344 C 68.152344 7.851562 67.417969 7.394531 67.179688 7.285156 C 66.507812 7 66.742188 7.015625 62.445312 6.996094 L 58.414062 6.972656 Z M 58.414062 7.453125 " fill-opacity="1" fill-rule="nonzero"/><path fill="#ffffff" d="M 70.191406 7.453125 L 70.191406 7.929688 L 76.109375 7.929688 L 75.941406 7.46875 C 75.851562 7.222656 75.78125 7.003906 75.78125 6.996094 C 75.78125 6.984375 74.523438 6.976562 72.988281 6.976562 L 70.191406 6.976562 Z M 70.191406 7.453125 " fill-opacity="1" fill-rule="nonzero"/><path fill="#ffffff" d="M 80.363281 7.1875 C 80.328125 7.300781 80.25 7.519531 80.199219 7.660156 L 80.089844 7.929688 L 85.953125 7.929688 L 85.953125 6.976562 L 80.433594 6.976562 Z M 80.363281 7.1875 " fill-opacity="1" fill-rule="nonzero"/><path fill="#ffffff" d="M 50.511719 9.355469 L 50.511719 9.828125 L 57.367188 9.828125 L 57.367188 8.878906 L 53.9375 8.878906 L 50.511719 8.882812 Z M 50.511719 9.355469 " fill-opacity="1" fill-rule="nonzero"/><path fill="#ffffff" d="M 59.183594 8.921875 L 58.414062 8.9375 L 58.414062 9.828125 L 69.367188 9.828125 L 69.332031 9.671875 C 69.3125 9.585938 69.242188 9.386719 69.1875 9.222656 C 69.105469 8.996094 69.050781 8.933594 68.960938 8.933594 C 66.796875 8.917969 59.726562 8.910156 59.183594 8.921875 Z M 59.183594 8.921875 " fill-opacity="1" fill-rule="nonzero"/><path fill="#ffffff" d="M 70.214844 8.925781 C 70.203125 8.9375 70.191406 9.148438 70.191406 9.390625 L 70.191406 9.828125 L 76.769531 9.828125 L 76.621094 9.390625 C 76.546875 9.160156 76.476562 8.953125 76.472656 8.945312 C 76.449219 8.921875 70.246094 8.90625 70.214844 8.925781 Z M 70.214844 8.925781 " fill-opacity="1" fill-rule="nonzero"/><path fill="#ffffff" d="M 79.753906 8.9375 C 79.71875 8.960938 79.425781 9.730469 79.425781 9.808594 C 79.425781 9.824219 80.898438 9.828125 82.691406 9.828125 L 85.957031 9.828125 L 85.941406 9.382812 L 85.925781 8.925781 L 82.863281 8.917969 C 81.179688 8.910156 79.78125 8.917969 79.753906 8.9375 Z M 79.753906 8.9375 " fill-opacity="1" fill-rule="nonzero"/><path fill="#ffffff" d="M 52.503906 11.308594 L 52.503906 11.777344 L 55.429688 11.777344 L 55.429688 10.832031 L 52.503906 10.832031 Z M 52.503906 11.308594 " fill-opacity="1" fill-rule="nonzero"/><path fill="#ffffff" d="M 60.417969 11.289062 L 60.433594 11.75 L 61.886719 11.769531 L 63.339844 11.777344 L 63.339844 10.832031 L 60.402344 10.832031 Z M 60.417969 11.289062 " fill-opacity="1" fill-rule="nonzero"/><path fill="#ffffff" d="M 66.324219 11.308594 L 66.324219 11.777344 L 69.246094 11.777344 L 69.339844 11.492188 C 69.382812 11.335938 69.417969 11.113281 69.417969 11.015625 L 69.417969 10.832031 L 66.324219 10.832031 Z M 66.324219 11.308594 " fill-opacity="1" fill-rule="nonzero"/><path fill="#ffffff" d="M 72.195312 11.289062 L 72.210938 11.75 L 74.832031 11.769531 C 76.261719 11.773438 77.4375 11.761719 77.433594 11.742188 C 77.433594 11.714844 77.363281 11.507812 77.277344 11.277344 L 77.125 10.859375 L 74.652344 10.84375 L 72.179688 10.832031 Z M 72.195312 11.289062 " fill-opacity="1" fill-rule="nonzero"/><path fill="#ffffff" d="M 78.914062 11.261719 C 78.832031 11.503906 78.765625 11.714844 78.765625 11.734375 C 78.765625 11.761719 79.949219 11.777344 81.390625 11.777344 L 84.015625 11.777344 L 84.015625 10.832031 L 79.070312 10.832031 Z M 78.914062 11.261719 " fill-opacity="1" fill-rule="nonzero"/><path fill="#ffffff" d="M 52.503906 13.203125 L 52.503906 13.679688 L 55.429688 13.679688 L 55.429688 12.730469 L 52.503906 12.730469 Z M 52.503906 13.203125 " fill-opacity="1" fill-rule="nonzero"/><path fill="#ffffff" d="M 60.40625 13.203125 L 60.40625 13.679688 L 67.996094 13.679688 L 68.199219 13.5 C 68.421875 13.304688 68.808594 12.84375 68.808594 12.773438 C 68.808594 12.746094 66.917969 12.730469 64.609375 12.730469 L 60.40625 12.730469 Z M 60.40625 13.203125 " fill-opacity="1" fill-rule="nonzero"/><path fill="#ffffff" d="M 72.183594 13.203125 L 72.183594 13.679688 L 75.117188 13.679688 L 75.117188 13.46875 C 75.117188 13.15625 75.179688 13.140625 75.289062 13.410156 L 75.382812 13.652344 L 80.839844 13.652344 L 80.921875 13.410156 C 81.023438 13.105469 81.089844 13.105469 81.089844 13.425781 L 81.089844 13.679688 L 84.015625 13.679688 L 84.015625 12.730469 L 78.4375 12.730469 L 78.324219 13.046875 C 78.257812 13.226562 78.195312 13.402344 78.183594 13.445312 C 78.140625 13.578125 78.058594 13.464844 77.933594 13.089844 L 77.8125 12.730469 L 72.183594 12.730469 Z M 72.183594 13.203125 " fill-opacity="1" fill-rule="nonzero"/><path fill="#ffffff" d="M 52.503906 15.105469 L 52.503906 15.574219 L 55.429688 15.574219 L 55.429688 14.628906 L 52.503906 14.628906 Z M 52.503906 15.105469 " fill-opacity="1" fill-rule="nonzero"/><path fill="#ffffff" d="M 60.40625 15.105469 L 60.40625 15.574219 L 64.609375 15.574219 C 66.917969 15.574219 68.808594 15.558594 68.808594 15.53125 C 68.808594 15.472656 68.398438 14.976562 68.1875 14.792969 L 68.011719 14.628906 L 60.40625 14.628906 Z M 60.40625 15.105469 " fill-opacity="1" fill-rule="nonzero"/><path fill="#ffffff" d="M 72.183594 15.105469 L 72.183594 15.574219 L 75.117188 15.574219 L 75.117188 14.628906 L 72.183594 14.628906 Z M 72.183594 15.105469 " fill-opacity="1" fill-rule="nonzero"/><path fill="#ffffff" d="M 75.78125 14.667969 C 75.78125 14.695312 75.84375 14.90625 75.925781 15.148438 L 76.082031 15.574219 L 78.128906 15.5625 L 80.171875 15.546875 L 80.320312 15.132812 C 80.40625 14.898438 80.476562 14.695312 80.476562 14.667969 C 80.476562 14.644531 79.417969 14.628906 78.128906 14.628906 C 76.832031 14.628906 75.78125 14.644531 75.78125 14.667969 Z M 75.78125 14.667969 " fill-opacity="1" fill-rule="nonzero"/><path fill="#ffffff" d="M 81.089844 15.105469 L 81.089844 15.574219 L 84.015625 15.574219 L 84.015625 14.628906 L 81.089844 14.628906 Z M 81.089844 15.105469 " fill-opacity="1" fill-rule="nonzero"/><path fill="#ffffff" d="M 52.503906 17 L 52.503906 17.476562 L 55.429688 17.476562 L 55.429688 16.523438 L 52.503906 16.523438 Z M 52.503906 17 " fill-opacity="1" fill-rule="nonzero"/><path fill="#ffffff" d="M 60.40625 17 L 60.40625 17.476562 L 63.339844 17.476562 L 63.339844 16.523438 L 60.40625 16.523438 Z M 60.40625 17 " fill-opacity="1" fill-rule="nonzero"/><path fill="#ffffff" d="M 66.324219 17 L 66.324219 17.476562 L 69.417969 17.476562 L 69.417969 17.292969 C 69.417969 17.1875 69.382812 16.972656 69.339844 16.816406 L 69.246094 16.523438 L 66.324219 16.523438 Z M 66.324219 17 " fill-opacity="1" fill-rule="nonzero"/><path fill="#ffffff" d="M 72.183594 17 L 72.183594 17.476562 L 75.117188 17.476562 L 75.117188 16.523438 L 72.183594 16.523438 Z M 72.183594 17 " fill-opacity="1" fill-rule="nonzero"/><path fill="#ffffff" d="M 76.445312 16.5625 C 76.445312 16.589844 76.507812 16.800781 76.597656 17.039062 L 76.746094 17.476562 L 78.125 17.464844 L 79.496094 17.449219 L 79.621094 17.113281 C 79.691406 16.929688 79.761719 16.71875 79.78125 16.65625 L 79.820312 16.53125 L 78.136719 16.523438 C 77.199219 16.523438 76.445312 16.539062 76.445312 16.5625 Z M 76.445312 16.5625 " fill-opacity="1" fill-rule="nonzero"/><path fill="#ffffff" d="M 81.089844 17 L 81.089844 17.476562 L 84.015625 17.476562 L 84.015625 16.523438 L 81.089844 16.523438 Z M 81.089844 17 " fill-opacity="1" fill-rule="nonzero"/><path fill="#ffffff" d="M 50.574219 18.9375 L 50.589844 19.402344 L 54.007812 19.417969 L 57.421875 19.429688 L 57.421875 18.480469 L 50.558594 18.480469 Z M 50.574219 18.9375 " fill-opacity="1" fill-rule="nonzero"/><path fill="#ffffff" d="M 58.414062 18.953125 L 58.414062 19.429688 L 63.734375 19.417969 L 69.058594 19.402344 L 69.175781 19.09375 C 69.242188 18.925781 69.3125 18.71875 69.332031 18.628906 L 69.367188 18.480469 L 58.414062 18.480469 Z M 58.414062 18.953125 " fill-opacity="1" fill-rule="nonzero"/><path fill="#ffffff" d="M 70.261719 18.9375 L 70.277344 19.402344 L 72.699219 19.417969 L 75.117188 19.429688 L 75.117188 18.480469 L 70.246094 18.480469 Z M 70.261719 18.9375 " fill-opacity="1" fill-rule="nonzero"/><path fill="#ffffff" d="M 77.210938 18.742188 C 77.265625 18.894531 77.339844 19.105469 77.378906 19.214844 L 77.449219 19.429688 L 78.101562 19.429688 C 78.554688 19.429688 78.773438 19.410156 78.804688 19.355469 C 78.859375 19.289062 79.097656 18.609375 79.097656 18.523438 C 79.097656 18.5 78.648438 18.480469 78.101562 18.480469 L 77.101562 18.480469 Z M 77.210938 18.742188 " fill-opacity="1" fill-rule="nonzero"/><path fill="#ffffff" d="M 81.089844 18.953125 L 81.089844 19.429688 L 86.007812 19.429688 L 86.007812 18.480469 L 81.089844 18.480469 Z M 81.089844 18.953125 " fill-opacity="1" fill-rule="nonzero"/><path fill="#ffffff" d="M 50.5625 20.851562 L 50.5625 21.324219 L 57.421875 21.324219 L 57.421875 20.378906 L 50.5625 20.378906 Z M 50.5625 20.851562 " fill-opacity="1" fill-rule="nonzero"/><path fill="#ffffff" d="M 58.414062 20.851562 L 58.414062 21.332031 L 62.417969 21.3125 L 66.40625 21.296875 L 66.847656 21.140625 C 67.269531 20.992188 67.734375 20.742188 68.039062 20.488281 L 68.179688 20.378906 L 58.414062 20.378906 Z M 58.414062 20.851562 " fill-opacity="1" fill-rule="nonzero"/><path fill="#ffffff" d="M 70.25 20.851562 L 70.25 21.324219 L 75.117188 21.324219 L 75.117188 20.378906 L 70.25 20.378906 Z M 70.25 20.851562 " fill-opacity="1" fill-rule="nonzero"/><path fill="#ffffff" d="M 77.847656 20.515625 C 77.929688 20.832031 78.117188 21.277344 78.15625 21.234375 C 78.179688 21.210938 78.257812 21 78.339844 20.78125 L 78.484375 20.378906 L 78.152344 20.378906 C 77.816406 20.378906 77.8125 20.378906 77.847656 20.515625 Z M 77.847656 20.515625 " fill-opacity="1" fill-rule="nonzero"/><path fill="#ffffff" d="M 81.089844 20.851562 L 81.089844 21.324219 L 86.007812 21.324219 L 86.007812 20.378906 L 81.089844 20.378906 Z M 81.089844 20.851562 " fill-opacity="1" fill-rule="nonzero"/></svg>