<svg xmlns="http://www.w3.org/2000/svg" xmlns:xlink="http://www.w3.org/1999/xlink" width="183" zoomAndPan="magnify" viewBox="0 0 137.25 30.000001" height="40" preserveAspectRatio="xMidYMid meet" version="1.0"><path fill="#ffffff" d="M 57.15625 7.429688 C 57.140625 7.4375 57.128906 10.6875 57.128906 14.644531 L 57.128906 21.832031 L 59.4375 21.832031 L 59.449219 16.335938 L 59.464844 10.832031 L 61.570312 14.652344 L 63.675781 18.464844 L 64.769531 18.453125 L 65.855469 18.4375 L 67.914062 14.699219 C 69.050781 12.644531 70.007812 10.933594 70.042969 10.898438 C 70.089844 10.851562 70.109375 12.277344 70.109375 16.261719 C 70.109375 19.242188 70.109375 21.722656 70.109375 21.757812 C 70.109375 21.8125 70.378906 21.832031 71.261719 21.832031 L 72.414062 21.832031 L 72.414062 14.632812 C 72.414062 9.871094 72.398438 7.433594 72.355469 7.433594 C 72.328125 7.429688 72.050781 7.429688 71.753906 7.429688 C 71.453125 7.429688 70.84375 7.429688 70.402344 7.433594 L 69.601562 7.433594 L 67.214844 11.789062 C 65.902344 14.179688 64.8125 16.144531 64.789062 16.144531 C 64.769531 16.144531 64.652344 15.953125 64.523438 15.71875 C 64.179688 15.074219 60.003906 7.460938 59.980469 7.4375 C 59.957031 7.410156 57.183594 7.394531 57.15625 7.429688 Z M 57.15625 7.429688 " fill-opacity="1" fill-rule="nonzero"/><path fill="#ffffff" d="M 37.371094 7.8125 C 35.820312 8.148438 34.445312 9.433594 33.476562 11.460938 C 32.421875 13.660156 32.046875 16.582031 32.566406 18.515625 C 32.90625 19.789062 33.734375 20.765625 34.773438 21.140625 C 35.316406 21.332031 36.503906 21.367188 37.042969 21.199219 C 38.460938 20.765625 39.492188 19.527344 41.644531 15.6875 C 42.339844 14.445312 42.511719 14.171875 42.566406 14.234375 C 42.605469 14.277344 43.09375 15.070312 43.640625 15.996094 C 45.300781 18.808594 46.042969 19.847656 46.835938 20.492188 C 47.605469 21.113281 48.175781 21.308594 49.1875 21.308594 C 50.21875 21.308594 50.878906 21.046875 51.496094 20.386719 C 52.3125 19.515625 52.691406 18.265625 52.691406 16.488281 C 52.683594 14.171875 52.078125 12.003906 50.960938 10.277344 C 50.484375 9.550781 49.585938 8.65625 48.992188 8.3125 C 46.945312 7.15625 45.082031 7.714844 43.214844 10.070312 L 42.804688 10.585938 L 42.515625 10.242188 C 42.007812 9.632812 41.125 8.796875 40.6875 8.503906 C 39.664062 7.828125 38.453125 7.570312 37.371094 7.8125 Z M 47.511719 9.585938 C 48.394531 9.882812 49.152344 10.660156 49.765625 11.878906 C 50.683594 13.714844 51.074219 16.949219 50.539062 18.246094 C 50.484375 18.363281 50.34375 18.574219 50.207031 18.726562 C 49.675781 19.300781 48.835938 19.28125 48.160156 18.691406 C 47.707031 18.285156 46.742188 16.84375 45.21875 14.28125 C 44.8125 13.597656 44.324219 12.804688 44.140625 12.523438 C 43.949219 12.242188 43.8125 11.980469 43.828125 11.933594 C 43.886719 11.769531 44.5625 10.863281 44.894531 10.503906 C 45.738281 9.578125 46.597656 9.277344 47.511719 9.585938 Z M 38.9375 10.074219 C 39.335938 10.214844 39.738281 10.492188 40.21875 10.980469 C 40.664062 11.425781 41.441406 12.414062 41.441406 12.535156 C 41.441406 12.605469 40.761719 13.6875 39.113281 16.246094 C 37.617188 18.5625 37.027344 19.132812 36.101562 19.125 C 35.613281 19.125 35.269531 18.953125 34.988281 18.570312 C 34.351562 17.691406 34.378906 15.496094 35.046875 13.414062 C 35.621094 11.625 36.597656 10.359375 37.652344 10.011719 C 37.953125 9.914062 38.535156 9.941406 38.9375 10.074219 Z M 38.9375 10.074219 " fill-opacity="1" fill-rule="nonzero"/><path fill="#ffffff" d="M 87.410156 9.523438 L 87.410156 11.089844 L 85.277344 11.089844 L 85.277344 13.007812 L 87.398438 13.007812 L 87.429688 16.007812 C 87.457031 19.382812 87.46875 19.484375 87.878906 20.371094 C 88.269531 21.21875 88.953125 21.746094 89.949219 21.972656 C 90.523438 22.105469 91.707031 22.101562 92.371094 21.957031 L 92.859375 21.863281 L 92.894531 19.957031 L 92.621094 20 C 91.488281 20.160156 90.703125 20.074219 90.296875 19.753906 C 90.035156 19.546875 89.792969 19.054688 89.71875 18.582031 C 89.6875 18.363281 89.660156 17.09375 89.660156 15.601562 L 89.660156 13.007812 L 92.890625 13.007812 L 92.890625 11.089844 L 89.660156 11.089844 L 89.660156 7.957031 L 87.410156 7.957031 Z M 87.410156 9.523438 " fill-opacity="1" fill-rule="nonzero"/><path fill="#ffffff" d="M 78.503906 10.949219 C 76.617188 11.363281 75.171875 12.804688 74.667969 14.777344 C 74.238281 16.488281 74.511719 18.464844 75.351562 19.753906 C 75.910156 20.613281 76.503906 21.136719 77.402344 21.570312 C 79.46875 22.574219 82.324219 22.167969 84.175781 20.601562 C 84.292969 20.5 84.347656 20.410156 84.320312 20.371094 C 84.285156 20.304688 83.355469 19.148438 83.199219 18.972656 C 83.179688 18.9375 82.96875 19.0625 82.738281 19.242188 C 81.960938 19.847656 81.316406 20.082031 80.230469 20.128906 C 79.414062 20.164062 78.945312 20.082031 78.390625 19.789062 C 77.945312 19.546875 77.402344 19.003906 77.160156 18.550781 C 76.96875 18.191406 76.722656 17.398438 76.785156 17.335938 C 76.804688 17.320312 78.578125 17.300781 80.738281 17.300781 L 84.660156 17.300781 L 84.617188 16.496094 C 84.570312 15.515625 84.460938 14.835938 84.230469 14.140625 C 83.683594 12.496094 82.496094 11.351562 80.949219 10.976562 C 80.351562 10.832031 79.121094 10.824219 78.503906 10.949219 Z M 80.144531 12.839844 C 81.355469 13.03125 82.179688 13.953125 82.363281 15.308594 L 82.402344 15.617188 L 76.800781 15.617188 L 76.800781 15.488281 C 76.800781 15.289062 76.964844 14.761719 77.125 14.425781 C 77.648438 13.390625 78.453125 12.855469 79.625 12.785156 C 79.707031 12.78125 79.9375 12.804688 80.144531 12.839844 Z M 80.144531 12.839844 " fill-opacity="1" fill-rule="nonzero"/><path fill="#ffffff" d="M 97.734375 10.96875 C 95.941406 11.433594 94.652344 12.824219 94.148438 14.847656 C 94.039062 15.28125 94.011719 15.515625 94.011719 16.433594 C 94.011719 17.101562 94.042969 17.636719 94.089844 17.855469 C 94.550781 19.980469 95.800781 21.445312 97.601562 21.957031 C 98.21875 22.140625 99.394531 22.140625 100.046875 21.957031 C 100.847656 21.738281 101.609375 21.265625 102.105469 20.691406 L 102.339844 20.410156 L 102.347656 21.117188 L 102.347656 21.832031 L 104.542969 21.832031 L 104.542969 11.089844 L 102.347656 11.089844 L 102.347656 12.40625 L 101.933594 11.996094 C 101.484375 11.554688 100.921875 11.214844 100.308594 11.023438 C 99.773438 10.847656 98.328125 10.816406 97.734375 10.96875 Z M 100.207031 12.976562 C 101.027344 13.175781 101.796875 13.789062 102.164062 14.535156 L 102.355469 14.921875 L 102.335938 16.53125 L 102.320312 18.144531 L 102.144531 18.457031 C 101.886719 18.9375 101.34375 19.453125 100.84375 19.695312 C 100.269531 19.972656 99.886719 20.0625 99.234375 20.046875 C 97.761719 20.03125 96.730469 19.144531 96.378906 17.59375 C 96.253906 17.027344 96.246094 15.972656 96.371094 15.386719 C 96.632812 14.160156 97.46875 13.242188 98.558594 12.972656 C 98.972656 12.871094 99.773438 12.871094 100.207031 12.976562 Z M 100.207031 12.976562 " fill-opacity="1" fill-rule="nonzero"/></svg>