<svg xmlns="http://www.w3.org/2000/svg" xmlns:xlink="http://www.w3.org/1999/xlink" width="183" zoomAndPan="magnify" viewBox="0 0 137.25 30.000001" height="40" preserveAspectRatio="xMidYMid meet" version="1.0"><defs><clipPath id="7fb1d402ff"><path d="M 42 6 L 125.515625 6 L 125.515625 23 L 42 23 Z M 42 6 " clip-rule="nonzero"/></clipPath><clipPath id="22ed84c6c5"><path d="M 10.839844 2.300781 L 23 2.300781 L 23 14 L 10.839844 14 Z M 10.839844 2.300781 " clip-rule="nonzero"/></clipPath><clipPath id="66284bedd6"><path d="M 23 2.300781 L 36 2.300781 L 36 14 L 23 14 Z M 23 2.300781 " clip-rule="nonzero"/></clipPath><clipPath id="81a19c8d38"><path d="M 10.839844 15 L 23 15 L 23 26.976562 L 10.839844 26.976562 Z M 10.839844 15 " clip-rule="nonzero"/></clipPath><clipPath id="27dc684e04"><path d="M 23 15 L 36 15 L 36 26.976562 L 23 26.976562 Z M 23 15 " clip-rule="nonzero"/></clipPath></defs><g clip-path="url(#7fb1d402ff)"><path fill="#ffffff" d="M 58.621094 7.1875 L 58.621094 21.84375 L 56.078125 21.84375 L 56.078125 10.339844 L 56.042969 10.339844 L 51.496094 21.84375 L 49.800781 21.84375 L 45.152344 10.339844 L 45.117188 10.339844 L 45.117188 21.84375 L 42.777344 21.84375 L 42.777344 7.1875 L 46.441406 7.1875 L 50.648438 18.042969 L 50.714844 18.042969 L 55.160156 7.1875 Z M 60.726562 8.304688 C 60.726562 7.898438 60.859375 7.558594 61.167969 7.289062 C 61.472656 7.015625 61.8125 6.882812 62.21875 6.882812 C 62.660156 6.882812 63.03125 7.015625 63.304688 7.289062 C 63.574219 7.558594 63.746094 7.898438 63.746094 8.304688 C 63.746094 8.714844 63.609375 9.050781 63.304688 9.324219 C 63 9.59375 62.660156 9.730469 62.21875 9.730469 C 61.777344 9.730469 61.4375 9.59375 61.167969 9.324219 C 60.894531 9.019531 60.726562 8.679688 60.726562 8.304688 Z M 63.472656 11.324219 L 63.472656 21.84375 L 60.996094 21.84375 L 60.996094 11.324219 Z M 70.972656 20.042969 C 71.34375 20.042969 71.75 19.976562 72.191406 19.773438 C 72.632812 19.605469 73.039062 19.367188 73.414062 19.09375 L 73.414062 21.402344 C 73.007812 21.640625 72.566406 21.808594 72.058594 21.910156 C 71.546875 22.011719 71.003906 22.082031 70.394531 22.082031 C 68.832031 22.082031 67.578125 21.605469 66.628906 20.621094 C 65.644531 19.636719 65.167969 18.382812 65.167969 16.890625 C 65.167969 15.191406 65.679688 13.800781 66.664062 12.714844 C 67.644531 11.628906 69.039062 11.089844 70.871094 11.089844 C 71.34375 11.089844 71.820312 11.15625 72.261719 11.257812 C 72.734375 11.359375 73.109375 11.527344 73.378906 11.664062 L 73.378906 14.039062 C 73.007812 13.769531 72.601562 13.53125 72.226562 13.394531 C 71.820312 13.257812 71.414062 13.15625 71.003906 13.15625 C 70.019531 13.15625 69.242188 13.460938 68.628906 14.109375 C 68.019531 14.753906 67.75 15.601562 67.75 16.6875 C 67.75 17.738281 68.054688 18.585938 68.628906 19.164062 C 69.207031 19.738281 69.988281 20.042969 70.972656 20.042969 Z M 80.4375 11.15625 C 80.640625 11.15625 80.808594 11.15625 80.980469 11.191406 C 81.148438 11.222656 81.285156 11.257812 81.386719 11.292969 L 81.386719 13.800781 C 81.25 13.699219 81.082031 13.597656 80.808594 13.53125 C 80.539062 13.460938 80.265625 13.394531 79.894531 13.394531 C 79.285156 13.394531 78.773438 13.667969 78.367188 14.175781 C 77.960938 14.683594 77.722656 15.464844 77.722656 16.550781 L 77.722656 21.84375 L 75.246094 21.84375 L 75.246094 11.324219 L 77.722656 11.324219 L 77.722656 12.988281 L 77.757812 12.988281 C 77.996094 12.410156 78.332031 11.96875 78.773438 11.628906 C 79.25 11.324219 79.792969 11.15625 80.4375 11.15625 Z M 81.523438 16.753906 C 81.523438 15.023438 82.03125 13.632812 82.980469 12.613281 C 83.964844 11.597656 85.324219 11.089844 87.054688 11.089844 C 88.679688 11.089844 89.972656 11.5625 90.886719 12.546875 C 91.804688 13.53125 92.277344 14.855469 92.277344 16.515625 C 92.277344 18.210938 91.769531 19.570312 90.820312 20.585938 C 89.835938 21.605469 88.511719 22.113281 86.816406 22.113281 C 85.1875 22.113281 83.898438 21.640625 82.949219 20.691406 C 81.996094 19.707031 81.523438 18.382812 81.523438 16.753906 Z M 84.101562 16.652344 C 84.101562 17.738281 84.339844 18.585938 84.847656 19.164062 C 85.355469 19.738281 86.070312 20.042969 86.984375 20.042969 C 87.867188 20.042969 88.578125 19.773438 89.054688 19.164062 C 89.53125 18.585938 89.765625 17.738281 89.765625 16.585938 C 89.765625 15.464844 89.53125 14.617188 89.054688 14.003906 C 88.578125 13.429688 87.867188 13.125 87.019531 13.125 C 86.101562 13.125 85.425781 13.429688 84.914062 14.039062 C 84.339844 14.683594 84.101562 15.53125 84.101562 16.652344 Z M 95.976562 14.109375 C 95.976562 14.445312 96.078125 14.753906 96.316406 14.957031 C 96.554688 15.160156 97.027344 15.398438 97.808594 15.703125 C 98.792969 16.109375 99.503906 16.550781 99.878906 17.023438 C 100.285156 17.535156 100.488281 18.109375 100.488281 18.824219 C 100.488281 19.808594 100.113281 20.585938 99.335938 21.199219 C 98.589844 21.808594 97.535156 22.082031 96.246094 22.082031 C 95.804688 22.082031 95.332031 22.011719 94.789062 21.910156 C 94.246094 21.808594 93.804688 21.671875 93.429688 21.503906 L 93.429688 19.0625 C 93.871094 19.367188 94.382812 19.636719 94.890625 19.808594 C 95.398438 19.976562 95.875 20.078125 96.316406 20.078125 C 96.859375 20.078125 97.300781 20.011719 97.535156 19.839844 C 97.808594 19.671875 97.945312 19.433594 97.945312 19.0625 C 97.945312 18.722656 97.808594 18.449219 97.535156 18.179688 C 97.265625 17.941406 96.722656 17.667969 95.976562 17.363281 C 95.058594 16.992188 94.414062 16.550781 94.042969 16.074219 C 93.667969 15.601562 93.464844 14.988281 93.464844 14.242188 C 93.464844 13.292969 93.839844 12.511719 94.585938 11.902344 C 95.332031 11.292969 96.316406 10.984375 97.503906 10.984375 C 97.875 10.984375 98.28125 11.019531 98.722656 11.121094 C 99.164062 11.222656 99.574219 11.324219 99.878906 11.425781 L 99.878906 13.835938 C 99.539062 13.632812 99.164062 13.429688 98.722656 13.257812 C 98.28125 13.089844 97.84375 13.023438 97.433594 13.023438 C 96.960938 13.023438 96.585938 13.125 96.347656 13.292969 C 96.113281 13.53125 95.976562 13.769531 95.976562 14.109375 Z M 101.539062 16.753906 C 101.539062 15.023438 102.050781 13.632812 103 12.613281 C 103.984375 11.597656 105.339844 11.089844 107.070312 11.089844 C 108.699219 11.089844 109.988281 11.5625 110.902344 12.546875 C 111.820312 13.53125 112.296875 14.855469 112.296875 16.515625 C 112.296875 18.210938 111.785156 19.570312 110.835938 20.585938 C 109.851562 21.605469 108.527344 22.113281 106.832031 22.113281 C 105.203125 22.113281 103.914062 21.640625 102.964844 20.691406 C 102.050781 19.707031 101.539062 18.382812 101.539062 16.753906 Z M 104.117188 16.652344 C 104.117188 17.738281 104.355469 18.585938 104.863281 19.164062 C 105.375 19.738281 106.085938 20.042969 107.003906 20.042969 C 107.882812 20.042969 108.597656 19.773438 109.070312 19.164062 C 109.546875 18.585938 109.785156 17.738281 109.785156 16.585938 C 109.785156 15.464844 109.546875 14.617188 109.070312 14.003906 C 108.597656 13.429688 107.882812 13.125 107.035156 13.125 C 106.121094 13.125 105.441406 13.429688 104.933594 14.039062 C 104.390625 14.683594 104.117188 15.53125 104.117188 16.652344 Z M 120.539062 13.359375 L 116.839844 13.359375 L 116.839844 21.84375 L 114.332031 21.84375 L 114.332031 13.359375 L 112.566406 13.359375 L 112.566406 11.324219 L 114.332031 11.324219 L 114.332031 9.867188 C 114.332031 8.78125 114.703125 7.863281 115.417969 7.152344 C 116.128906 6.441406 117.046875 6.101562 118.164062 6.101562 C 118.46875 6.101562 118.742188 6.132812 118.980469 6.132812 C 119.214844 6.132812 119.421875 6.203125 119.589844 6.269531 L 119.589844 8.40625 C 119.523438 8.375 119.351562 8.304688 119.148438 8.238281 C 118.945312 8.171875 118.707031 8.136719 118.4375 8.136719 C 117.925781 8.136719 117.519531 8.304688 117.25 8.609375 C 116.976562 8.917969 116.839844 9.425781 116.839844 10.035156 L 116.839844 11.292969 L 120.539062 11.292969 L 120.539062 8.917969 L 123.015625 8.171875 L 123.015625 11.292969 L 125.527344 11.292969 L 125.527344 13.328125 L 123.015625 13.328125 L 123.015625 18.246094 C 123.015625 18.890625 123.152344 19.332031 123.355469 19.605469 C 123.59375 19.875 123.964844 20.011719 124.476562 20.011719 C 124.609375 20.011719 124.78125 19.976562 124.984375 19.910156 C 125.1875 19.839844 125.355469 19.773438 125.492188 19.671875 L 125.492188 21.707031 C 125.324219 21.808594 125.085938 21.875 124.710938 21.945312 C 124.339844 22.011719 124 22.046875 123.628906 22.046875 C 122.574219 22.046875 121.796875 21.773438 121.285156 21.230469 C 120.777344 20.691406 120.503906 19.839844 120.503906 18.722656 Z M 120.539062 13.359375 " fill-opacity="1" fill-rule="nonzero"/></g><g clip-path="url(#22ed84c6c5)"><path fill="#f25022" d="M 10.988281 2.300781 L 22.589844 2.300781 L 22.589844 13.902344 L 10.988281 13.902344 Z M 10.988281 2.300781 " fill-opacity="1" fill-rule="nonzero"/></g><g clip-path="url(#66284bedd6)"><path fill="#7fba00" d="M 23.8125 2.300781 L 35.414062 2.300781 L 35.414062 13.902344 L 23.8125 13.902344 Z M 23.8125 2.300781 " fill-opacity="1" fill-rule="nonzero"/></g><g clip-path="url(#81a19c8d38)"><path fill="#00a4ef" d="M 10.988281 15.125 L 22.589844 15.125 L 22.589844 26.730469 L 10.988281 26.730469 Z M 10.988281 15.125 " fill-opacity="1" fill-rule="nonzero"/></g><g clip-path="url(#27dc684e04)"><path fill="#ffb900" d="M 23.8125 15.125 L 35.414062 15.125 L 35.414062 26.730469 L 23.8125 26.730469 Z M 23.8125 15.125 " fill-opacity="1" fill-rule="nonzero"/></g></svg>