<svg xmlns="http://www.w3.org/2000/svg" xmlns:xlink="http://www.w3.org/1999/xlink" width="183" zoomAndPan="magnify" viewBox="0 0 137.25 30.000001" height="40" preserveAspectRatio="xMidYMid meet" version="1.0"><defs><clipPath id="d49d8c8b65"><path d="M 1.851562 6.894531 L 10 6.894531 L 10 19 L 1.851562 19 Z M 1.851562 6.894531 " clip-rule="nonzero"/></clipPath><clipPath id="4289c9a95b"><path d="M 56 6.894531 L 64 6.894531 L 64 19 L 56 19 Z M 56 6.894531 " clip-rule="nonzero"/></clipPath><clipPath id="f8cca9f4aa"><path d="M 112 6.894531 L 117 6.894531 L 117 22 L 112 22 Z M 112 6.894531 " clip-rule="nonzero"/></clipPath><clipPath id="0b56313f18"><path d="M 130 6.894531 L 134.671875 6.894531 L 134.671875 22 L 130 22 Z M 130 6.894531 " clip-rule="nonzero"/></clipPath><clipPath id="cc267a9c28"><path d="M 101 10 L 109 10 L 109 22.136719 L 101 22.136719 Z M 101 10 " clip-rule="nonzero"/></clipPath></defs><g clip-path="url(#d49d8c8b65)"><path fill="#ffffff" d="M 5.613281 6.953125 C 5.039062 7.046875 4.582031 7.273438 4.242188 7.648438 C 3.796875 8.132812 3.621094 8.785156 3.613281 9.925781 L 3.613281 10.59375 L 2.914062 10.59375 C 2.515625 10.59375 2.167969 10.617188 2.09375 10.648438 C 1.875 10.75 1.78125 11.097656 1.90625 11.328125 C 2.011719 11.523438 2.265625 11.578125 3.042969 11.578125 L 3.769531 11.578125 L 3.769531 18.515625 L 3.925781 18.667969 C 4.066406 18.8125 4.113281 18.824219 4.300781 18.800781 C 4.414062 18.785156 4.558594 18.722656 4.621094 18.660156 C 4.730469 18.554688 4.730469 18.53125 4.746094 15.070312 L 4.757812 11.585938 L 5.96875 11.570312 C 7.113281 11.554688 7.195312 11.546875 7.335938 11.445312 C 7.613281 11.234375 7.601562 10.851562 7.3125 10.65625 C 7.1875 10.574219 7.023438 10.5625 5.957031 10.550781 L 4.746094 10.53125 L 4.769531 9.796875 C 4.800781 8.925781 4.875 8.660156 5.175781 8.359375 C 5.523438 8.007812 6.234375 7.859375 6.894531 7.984375 C 7.515625 8.109375 7.6875 8.277344 7.976562 9.054688 C 8.109375 9.40625 8.277344 9.550781 8.554688 9.550781 C 8.824219 9.550781 8.9375 9.484375 9.007812 9.285156 C 9.089844 9.035156 9.070312 8.71875 8.957031 8.339844 C 8.824219 7.90625 8.476562 7.503906 8.027344 7.265625 C 7.453125 6.957031 6.390625 6.820312 5.613281 6.953125 Z M 5.613281 6.953125 " fill-opacity="1" fill-rule="nonzero"/></g><g clip-path="url(#4289c9a95b)"><path fill="#ffffff" d="M 62.539062 6.953125 C 62.3125 7.089844 62.296875 7.25 62.296875 9.367188 L 62.296875 11.378906 L 62.023438 11.167969 C 61.660156 10.894531 61.101562 10.617188 60.6875 10.5 C 60.429688 10.429688 60.152344 10.40625 59.492188 10.40625 C 58.753906 10.40625 58.578125 10.425781 58.234375 10.53125 C 57.417969 10.761719 56.769531 11.222656 56.46875 11.777344 C 56.203125 12.273438 56.171875 12.53125 56.171875 14.574219 C 56.171875 16.0625 56.191406 16.515625 56.253906 16.78125 C 56.535156 17.984375 57.625 18.699219 59.3125 18.792969 C 59.949219 18.832031 60.566406 18.761719 61.019531 18.605469 C 61.167969 18.554688 61.53125 18.375 61.816406 18.195312 C 62.109375 18.019531 62.355469 17.878906 62.363281 17.878906 C 62.375 17.878906 62.398438 18.050781 62.417969 18.253906 C 62.445312 18.574219 62.472656 18.65625 62.589844 18.757812 C 62.757812 18.90625 63.03125 18.882812 63.199219 18.710938 C 63.304688 18.605469 63.304688 18.574219 63.324219 13.046875 C 63.335938 9.210938 63.324219 7.4375 63.28125 7.300781 C 63.1875 6.96875 62.8125 6.789062 62.539062 6.953125 Z M 60.90625 11.648438 C 61.285156 11.777344 61.816406 12.070312 62.179688 12.351562 L 62.347656 12.476562 L 62.347656 16.671875 L 62.105469 16.878906 C 61.164062 17.660156 60.816406 17.796875 59.777344 17.796875 C 58.578125 17.796875 57.796875 17.460938 57.453125 16.816406 C 57.347656 16.609375 57.339844 16.539062 57.324219 14.765625 C 57.308594 12.660156 57.316406 12.59375 57.710938 12.15625 C 58.160156 11.652344 58.734375 11.476562 59.804688 11.496094 C 60.402344 11.507812 60.5625 11.527344 60.90625 11.648438 Z M 60.90625 11.648438 " fill-opacity="1" fill-rule="nonzero"/></g><g clip-path="url(#f8cca9f4aa)"><path fill="#ffffff" d="M 116.152344 7.007812 C 115.84375 7.15625 114.972656 8.035156 114.507812 8.664062 C 113.277344 10.335938 112.777344 11.851562 112.777344 13.945312 C 112.777344 15.742188 113.105469 17.285156 113.765625 18.601562 C 114.425781 19.933594 115.683594 21.414062 116.332031 21.625 C 116.546875 21.699219 116.730469 21.625 116.894531 21.410156 C 117.074219 21.160156 116.992188 20.964844 116.433594 20.375 C 115.304688 19.175781 114.738281 18.265625 114.3125 16.96875 C 113.972656 15.90625 113.8125 14.5 113.910156 13.359375 C 114.09375 11.214844 114.789062 9.757812 116.410156 8.066406 C 117.042969 7.40625 117.082031 7.304688 116.832031 7.046875 C 116.644531 6.863281 116.472656 6.851562 116.152344 7.007812 Z M 116.152344 7.007812 " fill-opacity="1" fill-rule="nonzero"/></g><g clip-path="url(#0b56313f18)"><path fill="#ffffff" d="M 130.628906 6.964844 C 130.476562 7.039062 130.390625 7.242188 130.433594 7.425781 C 130.453125 7.5 130.753906 7.859375 131.105469 8.234375 C 131.859375 9.039062 132.246094 9.558594 132.625 10.289062 C 132.945312 10.914062 133.167969 11.546875 133.324219 12.28125 C 133.484375 13.027344 133.523438 14.554688 133.40625 15.394531 C 133.136719 17.324219 132.449219 18.773438 131.140625 20.136719 C 130.839844 20.457031 130.554688 20.773438 130.507812 20.847656 C 130.285156 21.167969 130.492188 21.625 130.859375 21.625 C 131.148438 21.625 131.445312 21.441406 131.929688 20.953125 C 132.542969 20.335938 133.152344 19.484375 133.554688 18.71875 C 134.292969 17.261719 134.589844 15.90625 134.589844 13.949219 C 134.589844 12.597656 134.429688 11.679688 134.015625 10.644531 C 133.46875 9.285156 132.058594 7.4375 131.242188 7.027344 C 130.964844 6.878906 130.816406 6.863281 130.628906 6.964844 Z M 130.628906 6.964844 " fill-opacity="1" fill-rule="nonzero"/></g><path fill="#ffffff" d="M 41.101562 7.417969 C 39.253906 7.675781 38.367188 8.632812 38.21875 10.507812 C 38.15625 11.320312 38.15625 15.140625 38.21875 15.84375 C 38.308594 16.832031 38.621094 17.457031 39.25 17.921875 C 39.699219 18.253906 40.042969 18.425781 40.535156 18.5625 C 41.277344 18.761719 42.5625 18.773438 43.316406 18.582031 C 44.503906 18.277344 45.339844 17.4375 45.484375 16.382812 C 45.570312 15.773438 45.46875 15.488281 45.148438 15.382812 C 45.003906 15.332031 44.925781 15.332031 44.804688 15.382812 C 44.609375 15.464844 44.566406 15.546875 44.472656 16.042969 C 44.289062 17.003906 43.839844 17.441406 42.832031 17.648438 C 42.507812 17.710938 42.257812 17.726562 41.828125 17.707031 C 40.671875 17.648438 40.007812 17.269531 39.652344 16.464844 C 39.398438 15.890625 39.386719 15.734375 39.386719 13.011719 C 39.386719 10.757812 39.398438 10.417969 39.476562 10.109375 C 39.789062 8.90625 40.5 8.410156 41.90625 8.402344 C 42.789062 8.402344 43.363281 8.554688 43.761719 8.898438 C 43.976562 9.074219 44.234375 9.589844 44.414062 10.179688 C 44.570312 10.707031 44.734375 10.902344 44.996094 10.902344 C 45.386719 10.902344 45.578125 10.507812 45.484375 9.878906 C 45.3125 8.65625 44.566406 7.851562 43.277344 7.511719 C 42.808594 7.394531 41.632812 7.335938 41.101562 7.417969 Z M 41.101562 7.417969 " fill-opacity="1" fill-rule="nonzero"/><path fill="#ffffff" d="M 77.347656 7.417969 C 75.859375 7.625 74.949219 8.394531 74.605469 9.734375 C 74.523438 10.058594 74.511719 10.386719 74.511719 13.140625 C 74.511719 16.507812 74.503906 16.410156 74.863281 17.113281 C 75.230469 17.851562 76.117188 18.429688 77.1875 18.636719 C 77.726562 18.742188 78.867188 18.742188 79.390625 18.632812 C 80.699219 18.363281 81.542969 17.609375 81.75 16.535156 C 81.894531 15.804688 81.71875 15.355469 81.285156 15.355469 C 80.976562 15.355469 80.875 15.488281 80.757812 16.054688 C 80.621094 16.734375 80.476562 16.988281 80.050781 17.292969 C 79.351562 17.796875 77.71875 17.867188 76.863281 17.429688 C 76.339844 17.167969 76.011719 16.757812 75.816406 16.113281 C 75.71875 15.792969 75.714844 15.605469 75.691406 13.261719 C 75.671875 10.46875 75.695312 10.136719 75.980469 9.527344 C 76.351562 8.742188 77.035156 8.402344 78.25 8.402344 C 78.824219 8.402344 79.371094 8.503906 79.703125 8.664062 C 80.164062 8.886719 80.476562 9.355469 80.703125 10.167969 C 80.882812 10.785156 81.046875 10.949219 81.414062 10.882812 C 81.789062 10.8125 81.902344 10.3125 81.726562 9.554688 C 81.484375 8.53125 80.726562 7.824219 79.546875 7.511719 C 79.070312 7.394531 77.894531 7.335938 77.347656 7.417969 Z M 77.347656 7.417969 " fill-opacity="1" fill-rule="nonzero"/><path fill="#ffffff" d="M 122.964844 8.214844 C 122.941406 9.601562 122.246094 11.265625 120.757812 13.507812 C 119.96875 14.683594 119.703125 15.21875 119.554688 15.96875 C 119.335938 17.007812 119.550781 18.035156 120.171875 18.980469 C 120.433594 19.367188 120.992188 19.964844 121.390625 20.273438 L 121.625 20.457031 L 121.476562 20.257812 C 120.972656 19.578125 120.917969 18.667969 121.320312 17.472656 C 121.546875 16.769531 121.902344 16.085938 122.527344 15.132812 C 123.132812 14.210938 123.332031 13.875 123.640625 13.296875 L 123.878906 12.855469 L 123.964844 13.066406 C 124.234375 13.707031 124.300781 14.46875 124.167969 15.457031 C 124.023438 16.539062 124.113281 17.035156 124.539062 17.40625 C 124.839844 17.675781 125.148438 17.75 125.785156 17.707031 L 126.273438 17.671875 L 126.371094 17.835938 C 126.683594 18.351562 126.453125 19.273438 125.800781 20.144531 C 125.660156 20.332031 125.5625 20.480469 125.582031 20.480469 C 125.671875 20.480469 126.496094 19.695312 126.8125 19.308594 C 127.226562 18.8125 127.683594 17.914062 127.796875 17.386719 C 127.972656 16.546875 127.878906 15.609375 127.515625 14.746094 C 127.351562 14.34375 126.773438 13.402344 126.691406 13.402344 C 126.667969 13.402344 126.578125 13.527344 126.503906 13.675781 C 126.164062 14.304688 125.925781 14.546875 125.65625 14.546875 C 125.429688 14.546875 125.410156 14.429688 125.542969 13.777344 C 125.785156 12.574219 125.726562 11.605469 125.359375 10.710938 C 125.171875 10.269531 124.867188 9.726562 124.589844 9.367188 C 124.382812 9.097656 123.507812 8.191406 123.207031 7.9375 L 122.972656 7.738281 Z M 122.964844 8.214844 " fill-opacity="1" fill-rule="nonzero"/><path fill="#ffffff" d="M 86.164062 10.332031 C 84.925781 10.476562 84.144531 10.949219 83.722656 11.804688 C 83.539062 12.1875 83.464844 12.730469 83.566406 12.984375 C 83.644531 13.179688 83.859375 13.296875 84.101562 13.296875 C 84.382812 13.296875 84.492188 13.167969 84.578125 12.730469 C 84.683594 12.238281 84.78125 12.027344 85.015625 11.835938 C 85.445312 11.484375 86.40625 11.308594 87.375 11.414062 C 88.277344 11.515625 88.808594 11.789062 89.0625 12.28125 C 89.1875 12.523438 89.195312 12.597656 89.214844 13.371094 L 89.234375 14.199219 L 89.109375 14.160156 C 87.777344 13.777344 87.613281 13.75 86.757812 13.75 C 86 13.746094 85.890625 13.761719 85.515625 13.886719 C 84.109375 14.347656 83.371094 15.410156 83.5625 16.691406 C 83.765625 18.007812 84.878906 18.757812 86.644531 18.761719 C 87.226562 18.761719 87.882812 18.660156 88.160156 18.519531 C 88.242188 18.472656 88.527344 18.300781 88.785156 18.132812 C 89.046875 17.960938 89.277344 17.828125 89.289062 17.828125 C 89.308594 17.828125 89.328125 17.871094 89.328125 17.929688 C 89.328125 18.132812 89.589844 18.320312 90.128906 18.503906 C 90.996094 18.789062 91.296875 18.722656 91.296875 18.246094 C 91.296875 17.929688 91.226562 17.84375 90.828125 17.648438 C 90.597656 17.535156 90.46875 17.441406 90.417969 17.332031 C 90.355469 17.199219 90.332031 16.757812 90.308594 14.730469 C 90.277344 12.113281 90.277344 12.0625 89.992188 11.515625 C 89.847656 11.214844 89.492188 10.863281 89.222656 10.722656 C 88.503906 10.355469 87.285156 10.199219 86.164062 10.332031 Z M 87.902344 14.882812 C 88.203125 14.933594 88.621094 15.019531 88.84375 15.082031 L 89.25 15.199219 L 89.265625 15.953125 L 89.277344 16.714844 L 89.109375 16.839844 C 88.515625 17.28125 88.019531 17.582031 87.738281 17.667969 C 87.007812 17.894531 86.109375 17.851562 85.488281 17.5625 C 84.863281 17.269531 84.664062 16.964844 84.65625 16.328125 C 84.65625 15.679688 84.964844 15.25 85.585938 15.019531 C 86.15625 14.808594 87.023438 14.753906 87.902344 14.882812 Z M 87.902344 14.882812 " fill-opacity="1" fill-rule="nonzero"/><g clip-path="url(#cc267a9c28)"><path fill="#ffffff" d="M 101.996094 10.367188 C 101.960938 10.382812 101.894531 10.46875 101.84375 10.554688 C 101.757812 10.710938 101.753906 11.117188 101.738281 16.03125 C 101.730469 19.839844 101.738281 21.417969 101.78125 21.613281 C 101.914062 22.238281 102.550781 22.265625 102.707031 21.65625 C 102.742188 21.507812 102.765625 20.800781 102.765625 19.675781 L 102.765625 17.921875 L 102.9375 18.035156 C 104.367188 19 106.71875 19.074219 107.886719 18.183594 C 108.269531 17.894531 108.601562 17.425781 108.746094 16.972656 C 108.855469 16.621094 108.863281 16.53125 108.863281 14.574219 C 108.863281 12.753906 108.851562 12.511719 108.769531 12.230469 C 108.625 11.773438 108.4375 11.453125 108.136719 11.167969 C 107.613281 10.667969 106.957031 10.4375 105.945312 10.398438 C 105.011719 10.355469 104.460938 10.476562 103.367188 10.960938 C 103.105469 11.078125 102.863281 11.171875 102.824219 11.179688 C 102.78125 11.183594 102.703125 11.058594 102.628906 10.851562 C 102.46875 10.40625 102.273438 10.253906 101.996094 10.367188 Z M 106.464844 11.554688 C 107.050781 11.710938 107.4375 11.980469 107.65625 12.386719 C 107.765625 12.589844 107.769531 12.640625 107.769531 14.625 L 107.769531 16.65625 L 107.632812 16.894531 C 107.28125 17.492188 106.417969 17.820312 105.359375 17.757812 C 104.808594 17.726562 104.128906 17.511719 103.4375 17.140625 C 103.167969 16.992188 102.894531 16.847656 102.832031 16.816406 L 102.710938 16.757812 L 102.710938 12.636719 L 103.039062 12.324219 C 103.589844 11.792969 103.988281 11.585938 104.65625 11.476562 C 105.078125 11.414062 106.09375 11.453125 106.464844 11.554688 Z M 106.464844 11.554688 " fill-opacity="1" fill-rule="nonzero"/></g><path fill="#ffffff" d="M 15.621094 10.449219 C 15.253906 10.574219 14.785156 10.855469 14.464844 11.140625 C 14.296875 11.296875 14.140625 11.421875 14.128906 11.421875 C 14.109375 11.421875 14.097656 11.335938 14.097656 11.226562 C 14.097656 10.980469 13.953125 10.6875 13.785156 10.605469 C 13.617188 10.523438 11.464844 10.511719 11.179688 10.59375 C 10.851562 10.6875 10.722656 11.070312 10.929688 11.335938 C 11.085938 11.535156 11.328125 11.578125 12.242188 11.578125 L 13.058594 11.578125 L 13.046875 14.609375 L 13.03125 17.644531 L 12.070312 17.671875 C 11.417969 17.6875 11.078125 17.71875 10.992188 17.765625 C 10.734375 17.910156 10.714844 18.359375 10.964844 18.554688 C 11.097656 18.660156 11.160156 18.660156 13.714844 18.660156 C 16.398438 18.660156 16.472656 18.65625 16.621094 18.457031 C 16.710938 18.339844 16.703125 17.976562 16.609375 17.84375 C 16.484375 17.660156 16.210938 17.617188 15.121094 17.617188 L 14.097656 17.617188 L 14.097656 12.816406 L 14.308594 12.53125 C 14.628906 12.117188 15.066406 11.742188 15.417969 11.570312 C 15.667969 11.453125 15.800781 11.421875 16.097656 11.421875 C 16.695312 11.421875 16.867188 11.589844 17.117188 12.40625 C 17.261719 12.878906 17.40625 13.015625 17.703125 12.964844 C 18.070312 12.890625 18.191406 12.40625 18.011719 11.710938 C 17.871094 11.183594 17.539062 10.78125 17.054688 10.550781 C 16.710938 10.386719 15.972656 10.335938 15.621094 10.449219 Z M 15.621094 10.449219 " fill-opacity="1" fill-rule="nonzero"/><path fill="#ffffff" d="M 22.628906 10.46875 C 21.71875 10.605469 21.183594 10.855469 20.640625 11.398438 C 20.222656 11.824219 20.046875 12.152344 19.964844 12.671875 C 19.890625 13.109375 19.890625 15.929688 19.960938 16.457031 C 20.105469 17.550781 20.847656 18.34375 21.992188 18.628906 C 22.878906 18.851562 24.203125 18.863281 25.105469 18.664062 C 25.980469 18.46875 26.804688 18.003906 27.136719 17.523438 C 27.351562 17.21875 27.386719 16.832031 27.222656 16.65625 C 27.019531 16.441406 26.824219 16.484375 26.390625 16.832031 C 25.898438 17.230469 25.386719 17.515625 24.882812 17.648438 C 24.40625 17.785156 22.878906 17.785156 22.402344 17.648438 C 21.972656 17.53125 21.71875 17.398438 21.457031 17.167969 C 21.066406 16.8125 20.941406 16.390625 20.941406 15.394531 L 20.941406 14.808594 L 23.839844 14.808594 C 26.597656 14.808594 26.734375 14.800781 26.890625 14.707031 C 27.136719 14.558594 27.191406 14.335938 27.15625 13.589844 C 27.105469 12.34375 26.734375 11.554688 25.957031 11.003906 C 25.199219 10.46875 23.9375 10.261719 22.628906 10.46875 Z M 24.5 11.523438 C 25.511719 11.78125 25.992188 12.363281 26.105469 13.433594 L 26.144531 13.769531 L 23.558594 13.757812 L 20.972656 13.738281 L 20.972656 13.296875 C 20.980469 12.765625 21.085938 12.484375 21.417969 12.132812 C 21.660156 11.863281 22.117188 11.621094 22.585938 11.507812 C 23.039062 11.398438 24.054688 11.402344 24.5 11.523438 Z M 24.5 11.523438 " fill-opacity="1" fill-rule="nonzero"/><path fill="#ffffff" d="M 31.867188 10.4375 C 30.59375 10.613281 29.691406 11.164062 29.265625 12.019531 C 29 12.554688 28.96875 12.890625 29 14.832031 C 29.027344 16.660156 29.054688 16.84375 29.359375 17.421875 C 29.867188 18.382812 31.1875 18.878906 33.007812 18.792969 C 34.21875 18.742188 35.054688 18.492188 35.746094 17.984375 C 36.191406 17.648438 36.40625 17.324219 36.40625 16.984375 C 36.40625 16.800781 36.375 16.703125 36.300781 16.628906 C 36.121094 16.445312 35.933594 16.496094 35.4375 16.871094 C 34.902344 17.269531 34.40625 17.535156 33.949219 17.660156 C 33.484375 17.785156 31.949219 17.78125 31.476562 17.648438 C 31.019531 17.523438 30.671875 17.324219 30.4375 17.054688 C 30.132812 16.714844 30.074219 16.472656 30.074219 15.578125 L 30.074219 14.808594 L 32.925781 14.808594 C 34.609375 14.808594 35.832031 14.785156 35.90625 14.753906 C 36.214844 14.640625 36.324219 14.21875 36.25 13.453125 C 36.09375 11.789062 35.398438 10.898438 33.992188 10.539062 C 33.503906 10.414062 32.417969 10.363281 31.867188 10.4375 Z M 33.535156 11.507812 C 34.238281 11.667969 34.730469 12.039062 34.984375 12.59375 C 35.113281 12.878906 35.210938 13.300781 35.210938 13.589844 L 35.210938 13.769531 L 30.074219 13.769531 L 30.074219 13.28125 C 30.074219 12.890625 30.097656 12.753906 30.199219 12.542969 C 30.421875 12.058594 30.96875 11.675781 31.679688 11.503906 C 32.089844 11.402344 33.101562 11.402344 33.535156 11.507812 Z M 33.535156 11.507812 " fill-opacity="1" fill-rule="nonzero"/><path fill="#ffffff" d="M 49.714844 10.4375 C 48.613281 10.605469 47.796875 11.101562 47.441406 11.820312 C 47.1875 12.332031 47.171875 12.5 47.171875 14.652344 C 47.175781 16.546875 47.183594 16.671875 47.285156 16.976562 C 47.507812 17.648438 47.882812 18.066406 48.519531 18.375 C 49.023438 18.613281 49.5 18.71875 50.253906 18.757812 C 52.777344 18.886719 54.117188 18.214844 54.414062 16.660156 C 54.441406 16.519531 54.460938 15.574219 54.460938 14.554688 C 54.460938 13.101562 54.441406 12.628906 54.382812 12.371094 C 54.160156 11.421875 53.511719 10.820312 52.378906 10.53125 C 52.035156 10.445312 51.753906 10.417969 50.984375 10.40625 C 50.453125 10.398438 49.882812 10.40625 49.714844 10.4375 Z M 51.992188 11.527344 C 52.472656 11.652344 52.742188 11.789062 52.976562 12.027344 C 53.351562 12.414062 53.347656 12.382812 53.359375 14.492188 C 53.378906 16.683594 53.371094 16.738281 52.957031 17.148438 C 52.539062 17.574219 51.964844 17.722656 50.789062 17.722656 C 49.417969 17.722656 48.691406 17.429688 48.351562 16.746094 L 48.207031 16.445312 L 48.207031 12.699219 L 48.351562 12.402344 C 48.621094 11.855469 49.148438 11.554688 50.070312 11.421875 C 50.539062 11.359375 51.539062 11.410156 51.992188 11.527344 Z M 51.992188 11.527344 " fill-opacity="1" fill-rule="nonzero"/><path fill="#ffffff" d="M 68.15625 10.4375 C 66.875 10.613281 65.949219 11.195312 65.523438 12.089844 L 65.332031 12.492188 L 65.332031 14.523438 C 65.332031 16.097656 65.347656 16.609375 65.402344 16.8125 C 65.652344 17.710938 66.363281 18.375 67.355469 18.628906 C 68.453125 18.910156 70.027344 18.851562 71.089844 18.492188 C 72.230469 18.101562 73.050781 17.109375 72.59375 16.65625 C 72.417969 16.472656 72.226562 16.496094 71.945312 16.707031 C 70.917969 17.511719 70.425781 17.707031 69.324219 17.757812 C 68.25 17.804688 67.554688 17.671875 67.007812 17.304688 C 66.507812 16.972656 66.34375 16.519531 66.34375 15.5 L 66.34375 14.808594 L 69.222656 14.808594 C 71.28125 14.808594 72.132812 14.792969 72.226562 14.746094 C 72.300781 14.714844 72.40625 14.585938 72.46875 14.453125 C 72.574219 14.246094 72.578125 14.167969 72.550781 13.613281 C 72.539062 13.28125 72.488281 12.859375 72.433594 12.671875 C 72.148438 11.554688 71.421875 10.824219 70.300781 10.53125 C 69.832031 10.414062 68.699219 10.363281 68.15625 10.4375 Z M 69.894531 11.523438 C 70.898438 11.78125 71.378906 12.371094 71.5 13.464844 L 71.53125 13.769531 L 66.332031 13.769531 L 66.355469 13.257812 C 66.367188 12.867188 66.398438 12.699219 66.492188 12.527344 C 66.730469 12.058594 67.261719 11.695312 67.949219 11.507812 C 68.375 11.390625 69.4375 11.402344 69.894531 11.523438 Z M 69.894531 11.523438 " fill-opacity="1" fill-rule="nonzero"/><path fill="#ffffff" d="M 94.285156 10.445312 C 94.152344 10.480469 93.964844 10.617188 93.703125 10.867188 C 93.351562 11.199219 93.320312 11.214844 93.320312 11.097656 C 93.320312 10.570312 92.816406 10.226562 92.546875 10.570312 C 92.441406 10.707031 92.441406 10.742188 92.441406 14.566406 C 92.441406 18.132812 92.445312 18.441406 92.535156 18.605469 C 92.703125 18.960938 93.253906 18.941406 93.40625 18.574219 C 93.460938 18.4375 93.476562 17.820312 93.476562 15.339844 L 93.476562 12.273438 L 93.808594 11.949219 C 94.199219 11.578125 94.40625 11.476562 94.769531 11.476562 C 95.085938 11.476562 95.273438 11.542969 95.464844 11.726562 C 95.75 12 95.761719 12.105469 95.761719 15.324219 C 95.761719 17.128906 95.78125 18.34375 95.8125 18.457031 C 95.84375 18.5625 95.910156 18.6875 95.96875 18.738281 C 96.097656 18.855469 96.457031 18.863281 96.585938 18.742188 C 96.785156 18.566406 96.796875 18.296875 96.796875 15.195312 L 96.796875 12.183594 L 97.074219 11.917969 C 97.453125 11.546875 97.675781 11.453125 98.128906 11.453125 C 98.585938 11.453125 98.734375 11.539062 98.925781 11.925781 L 99.054688 12.179688 L 99.082031 15.363281 L 99.105469 18.550781 L 99.226562 18.667969 C 99.316406 18.757812 99.402344 18.789062 99.566406 18.789062 C 99.84375 18.789062 99.992188 18.675781 100.066406 18.40625 C 100.140625 18.140625 100.136719 12.164062 100.0625 11.761719 C 99.921875 10.988281 99.492188 10.570312 98.691406 10.429688 C 97.917969 10.292969 97.242188 10.476562 96.730469 10.949219 L 96.414062 11.253906 L 96.105469 10.929688 C 95.710938 10.53125 95.359375 10.375 94.835938 10.386719 C 94.644531 10.394531 94.402344 10.417969 94.285156 10.445312 Z M 94.285156 10.445312 " fill-opacity="1" fill-rule="nonzero"/></svg>